<svg width="25" height="25" viewBox="0 0 25 25" fill="none" xmlns="http://www.w3.org/2000/svg">
<path d="M12.5002 5.72915L11.9377 6.27082C12.0105 6.34643 12.0979 6.40657 12.1946 6.44765C12.2912 6.48873 12.3951 6.5099 12.5002 6.5099C12.6052 6.5099 12.7091 6.48873 12.8058 6.44765C12.9024 6.40657 12.9898 6.34643 13.0627 6.27082L12.5002 5.72915ZM9.81891 19.0854C8.23975 17.8406 6.51371 16.625 5.14391 15.0833C3.80225 13.5708 2.86475 11.8073 2.86475 9.51769H1.30225C1.30225 12.2948 2.4585 14.4135 3.9762 16.1208C5.46579 17.7979 7.36579 19.1417 8.8512 20.3125L9.81891 19.0854ZM2.86475 9.51769C2.86475 7.27811 4.13037 5.39894 5.8585 4.60832C7.53766 3.84061 9.79391 4.04374 11.9377 6.27082L13.0627 5.18853C10.521 2.54582 7.56683 2.10936 5.2085 3.18749C2.90225 4.24269 1.30225 6.69269 1.30225 9.51769H2.86475ZM8.8512 20.3125C9.38558 20.7333 9.9585 21.1812 10.5387 21.5208C11.1189 21.8604 11.7814 22.1354 12.5002 22.1354V20.5729C12.1772 20.5729 11.7981 20.4479 11.3272 20.1719C10.8554 19.8969 10.3668 19.5177 9.81891 19.0854L8.8512 20.3125ZM16.1491 20.3125C17.6345 19.1406 19.5345 17.7989 21.0241 16.1208C22.5418 14.4125 23.6981 12.2948 23.6981 9.51769H22.1356C22.1356 11.8073 21.1981 13.5708 19.8564 15.0833C18.4866 16.625 16.7606 17.8406 15.1814 19.0854L16.1491 20.3125ZM23.6981 9.51769C23.6981 6.69269 22.0991 4.24269 19.7918 3.18749C17.4335 2.10936 14.4814 2.54582 11.9377 5.18749L13.0627 6.27082C15.2064 4.04478 17.4627 3.84061 19.1418 4.60832C20.87 5.39894 22.1356 7.27707 22.1356 9.51769H23.6981ZM15.1814 19.0854C14.6335 19.5177 14.145 19.8969 13.6731 20.1719C13.2012 20.4469 12.8231 20.5729 12.5002 20.5729V22.1354C13.2189 22.1354 13.8814 21.8594 14.4616 21.5208C15.0429 21.1812 15.6147 20.7333 16.1491 20.3125L15.1814 19.0854Z" fill="#4B00AD"/>
</svg>
