<svg width="23" height="23" viewBox="0 0 23 23" fill="none" xmlns="http://www.w3.org/2000/svg">
<path fill-rule="evenodd" clip-rule="evenodd" d="M1.8288 15.586C-1.11685 8.14375 4.20183 0 12.0075 0H12.4282C15.2318 0.00071522 17.9204 1.1476 19.9028 3.1885C21.8853 5.2294 22.9993 7.99725 23 10.8835C23.0003 12.4748 22.6961 14.0505 22.1048 15.5207C21.5134 16.9909 20.6465 18.3268 19.5536 19.452C18.4606 20.5771 17.163 21.4696 15.7349 22.0784C14.3068 22.6872 12.7762 23.0004 11.2305 23H0.983629C0.780029 23.0002 0.581398 22.9353 0.415185 22.8142C0.248972 22.6932 0.123382 22.522 0.0557706 22.3242C-0.0118411 22.1265 -0.0181371 21.9121 0.037753 21.7105C0.0936431 21.509 0.20896 21.3303 0.367768 21.1991L2.95045 19.0637C3.00567 19.0182 3.04509 18.9554 3.0628 18.8849C3.08052 18.8144 3.07558 18.7399 3.04873 18.6725L1.8288 15.586ZM12.0075 2.02346C5.59603 2.02346 1.22866 8.71032 3.64755 14.8225L4.86879 17.9103C5.05486 18.381 5.08842 18.901 4.96448 19.3929C4.84054 19.8848 4.56572 20.3224 4.18086 20.6406L3.77597 20.9765H11.2305C12.5181 20.9769 13.7931 20.7161 14.9827 20.209C16.1724 19.7019 17.2533 18.9584 18.1637 18.0212C19.0742 17.0839 19.7963 15.9711 20.2889 14.7464C20.7815 13.5217 21.0348 12.2091 21.0345 10.8835C21.0338 8.53391 20.1268 6.28073 18.513 4.6193C16.8991 2.95787 14.7105 2.02418 12.4282 2.02346H12.0075Z" fill="black"/>
</svg>
