<svg width="79" height="20" viewBox="0 0 79 20" fill="none" xmlns="http://www.w3.org/2000/svg">
<path d="M7.07805e-08 18.375C0.316667 18.475 0.608333 18.525 0.875 18.525C1.19167 18.525 1.43333 18.4417 1.6 18.275C1.78333 18.0917 1.875 17.8333 1.875 17.5V2C1.875 1.66667 1.78333 1.41667 1.6 1.25C1.43333 1.06667 1.19167 0.975 0.875 0.975C0.608333 0.975 0.316667 1.025 7.07805e-08 1.125V0.5H7.725C9.15833 0.5 10.475 0.866666 11.675 1.6C12.8917 2.33333 13.85 3.36667 14.55 4.7C15.25 6.03333 15.6 7.55 15.6 9.25C15.6 10.9667 15.2417 12.575 14.525 14.075C13.825 15.575 12.8667 16.775 11.65 17.675C10.45 18.5583 9.14167 19 7.725 19H7.07805e-08V18.375ZM7.175 18.575C8.125 18.575 9.09167 18.2583 10.075 17.625C11.075 16.9917 11.9167 16.0083 12.6 14.675C13.2833 13.325 13.625 11.65 13.625 9.65C13.625 8.1 13.325 6.65833 12.725 5.325C12.1417 3.975 11.35 2.9 10.35 2.1C9.36667 1.3 8.30833 0.899999 7.175 0.899999H4.925C4.625 0.899999 4.35 0.991666 4.1 1.175C3.86667 1.34167 3.75 1.61667 3.75 2V17.5C3.75 17.8833 3.86667 18.1583 4.1 18.325C4.35 18.4917 4.625 18.575 4.925 18.575H7.175ZM22.0834 19.25C20.5001 19.25 19.3167 18.725 18.5334 17.675C17.7501 16.6083 17.3584 15.0583 17.3584 13.025C17.3584 11.9583 17.5251 10.9583 17.8584 10.025C18.1917 9.075 18.7084 8.30833 19.4084 7.725C20.1251 7.125 21.0001 6.825 22.0334 6.825C23.7167 6.825 24.9167 7.34167 25.6334 8.375C26.3501 9.39167 26.7084 10.6167 26.7084 12.05C26.7084 12.3 26.6917 12.625 26.6584 13.025L26.6334 13.25H19.1084C19.1751 16.9833 20.2167 18.85 22.2334 18.85C23.1334 18.85 23.8001 18.575 24.2334 18.025C24.6667 17.475 24.8834 16.85 24.8834 16.15C24.8834 15.8667 24.8084 15.6583 24.6584 15.525C24.5251 15.3917 24.3501 15.325 24.1334 15.325C23.9667 15.325 23.8167 15.375 23.6834 15.475C23.5667 15.5583 23.5084 15.6667 23.5084 15.8H23.2834V15.125H26.4584C26.5084 15.7583 26.3501 16.3917 25.9834 17.025C25.6334 17.6583 25.1167 18.1833 24.4334 18.6C23.7501 19.0167 22.9667 19.2333 22.0834 19.25ZM24.3084 12.875C24.6084 12.875 24.7834 12.85 24.8334 12.8C24.9001 12.7333 24.9417 12.5833 24.9584 12.35C24.9751 12.1667 24.9834 11.8917 24.9834 11.525C24.9834 10.2583 24.7501 9.20833 24.2834 8.375C23.8167 7.54167 23.0334 7.125 21.9334 7.125C20.8667 7.125 20.1334 7.65 19.7334 8.7C19.3334 9.75 19.1251 11.1417 19.1084 12.875H24.3084ZM38.4139 7.325V7.7C38.2305 7.63333 38.0472 7.6 37.8639 7.6C37.4639 7.6 37.1222 7.73333 36.8389 8C36.5722 8.25 36.3972 8.50833 36.3139 8.775L33.0889 19H31.6889L28.6389 8.975C28.4389 8.075 28.0222 7.625 27.3889 7.625C27.2055 7.625 27.0222 7.65 26.8389 7.7V7.325H31.2139V7.7C30.9639 7.65 30.7555 7.625 30.5889 7.625C30.3722 7.625 30.2055 7.66667 30.0889 7.75C29.9889 7.83333 29.9389 7.94167 29.9389 8.075C29.9389 8.125 29.9555 8.2 29.9889 8.3L32.8889 18.3L35.9139 8.775C35.9639 8.59167 35.9889 8.425 35.9889 8.275C35.9889 7.80833 35.7472 7.575 35.2639 7.575C35.0472 7.575 34.8222 7.61667 34.5889 7.7V7.325H38.4139ZM46.6592 19.5C45.2425 19.5 43.8925 19.0583 42.6092 18.175C41.3425 17.275 40.3258 16.075 39.5592 14.575C38.7925 13.075 38.4092 11.4667 38.4092 9.75C38.4092 7.88333 38.7758 6.20833 39.5092 4.725C40.2425 3.24167 41.2425 2.08333 42.5092 1.25C43.7758 0.416666 45.1842 -1.2517e-06 46.7342 -1.2517e-06C47.6008 -1.2517e-06 48.5925 0.233332 49.7092 0.699999C50.8425 1.16667 51.6342 1.7 52.0842 2.3L52.4592 0.424999H52.8842V6H52.3592C52.3592 5.13333 52.0925 4.275 51.5592 3.425C51.0425 2.575 50.3258 1.875 49.4092 1.325C48.4925 0.775 47.4842 0.5 46.3842 0.5C45.2508 0.5 44.2425 0.9 43.3592 1.7C42.4758 2.5 41.7842 3.6 41.2842 5C40.7842 6.38333 40.5342 7.93333 40.5342 9.65C40.5342 11.3 40.7758 12.8417 41.2592 14.275C41.7592 15.6917 42.5092 16.8333 43.5092 17.7C44.5258 18.5667 45.7592 19 47.2092 19C48.2758 19 49.2508 18.6917 50.1342 18.075C51.0175 17.4583 51.6758 16.6583 52.1092 15.675C52.1592 15.5583 52.2592 15.2167 52.4092 14.65C52.5258 14.15 52.6425 13.7333 52.7592 13.4C52.8925 13.05 53.0675 12.7417 53.2842 12.475H53.6342C53.3675 12.7083 53.1758 13.1417 53.0592 13.775C52.9592 14.4083 52.9092 15.2833 52.9092 16.4C52.9092 16.8 52.5842 17.25 51.9342 17.75C51.3008 18.2333 50.4925 18.65 49.5092 19C48.5425 19.3333 47.5925 19.5 46.6592 19.5ZM60.102 19.25C58.3353 19.25 57.0603 18.6917 56.277 17.575C55.5103 16.4417 55.127 14.925 55.127 13.025C55.127 11.275 55.5186 9.80833 56.302 8.625C57.0853 7.425 58.352 6.825 60.102 6.825C61.852 6.825 63.1186 7.425 63.902 8.625C64.702 9.80833 65.102 11.275 65.102 13.025C65.102 14.925 64.7103 16.4417 63.927 17.575C63.1436 18.6917 61.8686 19.25 60.102 19.25ZM60.102 18.95C61.2353 18.95 62.0603 18.4083 62.577 17.325C63.0936 16.225 63.352 14.7917 63.352 13.025C63.352 11.375 63.0853 9.98333 62.552 8.85C62.0186 7.7 61.202 7.125 60.102 7.125C59.002 7.125 58.1853 7.7 57.652 8.85C57.1353 9.98333 56.877 11.375 56.877 13.025C56.877 14.7917 57.1353 16.225 57.652 17.325C58.1686 18.4083 58.9853 18.95 60.102 18.95ZM77.0398 17.5C77.0398 17.9167 77.0815 18.2333 77.1648 18.45C77.2482 18.65 77.4398 18.75 77.7398 18.75C77.8732 18.75 78.0815 18.7083 78.3648 18.625V19H74.1148V18.625C74.3982 18.7083 74.6065 18.75 74.7398 18.75C75.0065 18.75 75.1732 18.65 75.2398 18.45C75.3232 18.25 75.3648 17.9333 75.3648 17.5V10.8C75.3648 9.65 75.1232 8.75 74.6398 8.1C74.1732 7.45 73.5565 7.125 72.7898 7.125C72.0565 7.125 71.4648 7.41667 71.0148 8C70.5815 8.56667 70.2732 9.24167 70.0898 10.025C69.9232 10.8083 69.8398 11.5583 69.8398 12.275V17.5C69.8398 17.9333 69.8732 18.25 69.9398 18.45C70.0232 18.65 70.1982 18.75 70.4648 18.75C70.5982 18.75 70.8065 18.7083 71.0898 18.625V19H66.8398V18.625C67.1232 18.7083 67.3315 18.75 67.4648 18.75C67.7648 18.75 67.9565 18.65 68.0398 18.45C68.1232 18.2333 68.1648 17.9167 68.1648 17.5V8.625C67.9148 8.70833 67.6482 8.75 67.3648 8.75C67.2482 8.75 67.0732 8.73333 66.8398 8.7V8.025H67.0648C67.0648 8.14167 67.1232 8.24167 67.2398 8.325C67.3732 8.40833 67.5232 8.45 67.6898 8.45C67.9232 8.45 68.1315 8.35833 68.3148 8.175C68.4982 7.99167 68.7232 7.70833 68.9898 7.325H69.4398L69.4648 9.35H69.8148C70.1148 8.6 70.5232 7.99167 71.0398 7.525C71.5732 7.04167 72.2315 6.8 73.0148 6.8C73.6482 6.8 74.2732 6.96667 74.8898 7.3C75.5232 7.61667 76.0398 8.08333 76.4398 8.7C76.8398 9.3 77.0398 10 77.0398 10.8V17.5Z" fill="black"/>
</svg>
