<svg width="296" height="86" viewBox="0 0 296 86" fill="none" xmlns="http://www.w3.org/2000/svg">
<path d="M2.44 62.475C3.21267 62.719 3.92433 62.841 4.575 62.841C5.34767 62.841 5.93733 62.6377 6.344 62.231C6.79133 61.7837 7.015 61.1533 7.015 60.34V22.52C7.015 21.7067 6.79133 21.0967 6.344 20.69C5.93733 20.2427 5.34767 20.019 4.575 20.019C3.92433 20.019 3.21267 20.141 2.44 20.385V18.86H21.289C24.7863 18.86 27.999 19.7547 30.927 21.544C33.8957 23.3333 36.234 25.8547 37.942 29.108C39.65 32.3613 40.504 36.062 40.504 40.21C40.504 44.3987 39.6297 48.323 37.881 51.983C36.173 55.643 33.8347 58.571 30.866 60.767C27.938 62.9223 24.7457 64 21.289 64H2.44V62.475ZM19.947 62.963C22.265 62.963 24.6237 62.1903 27.023 60.645C29.463 59.0997 31.5167 56.7003 33.184 53.447C34.8513 50.153 35.685 46.066 35.685 41.186C35.685 37.404 34.953 33.8863 33.489 30.633C32.0657 27.339 30.134 24.716 27.694 22.764C25.2947 20.812 22.7123 19.836 19.947 19.836H14.457C13.725 19.836 13.054 20.0597 12.444 20.507C11.8747 20.9137 11.59 21.5847 11.59 22.52V60.34C11.59 61.2753 11.8747 61.9463 12.444 62.353C13.054 62.7597 13.725 62.963 14.457 62.963H19.947ZM56.3235 64.61C52.4602 64.61 49.5728 63.329 47.6615 60.767C45.7502 58.1643 44.7945 54.3823 44.7945 49.421C44.7945 46.8183 45.2012 44.3783 46.0145 42.101C46.8278 39.783 48.0885 37.9123 49.7965 36.489C51.5452 35.025 53.6802 34.293 56.2015 34.293C60.3088 34.293 63.2368 35.5537 64.9855 38.075C66.7342 40.5557 67.6085 43.5447 67.6085 47.042C67.6085 47.652 67.5678 48.445 67.4865 49.421L67.4255 49.97H49.0645C49.2272 59.0793 51.7688 63.634 56.6895 63.634C58.8855 63.634 60.5122 62.963 61.5695 61.621C62.6268 60.279 63.1555 58.754 63.1555 57.046C63.1555 56.3547 62.9725 55.8463 62.6065 55.521C62.2812 55.1957 61.8542 55.033 61.3255 55.033C60.9188 55.033 60.5528 55.155 60.2275 55.399C59.9428 55.6023 59.8005 55.8667 59.8005 56.192H59.2515V54.545H66.9985C67.1205 56.0903 66.7342 57.6357 65.8395 59.181C64.9855 60.7263 63.7248 62.0073 62.0575 63.024C60.3902 64.0407 58.4788 64.5693 56.3235 64.61ZM61.7525 49.055C62.4845 49.055 62.9115 48.994 63.0335 48.872C63.1962 48.7093 63.2978 48.3433 63.3385 47.774C63.3792 47.3267 63.3995 46.6557 63.3995 45.761C63.3995 42.6703 62.8302 40.1083 61.6915 38.075C60.5528 36.0417 58.6415 35.025 55.9575 35.025C53.3548 35.025 51.5655 36.306 50.5895 38.868C49.6135 41.43 49.1052 44.8257 49.0645 49.055H61.7525ZM96.1698 35.513V36.428C95.7225 36.2653 95.2752 36.184 94.8278 36.184C93.8518 36.184 93.0182 36.5093 92.3268 37.16C91.6762 37.77 91.2492 38.4003 91.0458 39.051L83.1768 64H79.7608L72.3188 39.539C71.8308 37.343 70.8142 36.245 69.2688 36.245C68.8215 36.245 68.3742 36.306 67.9268 36.428V35.513H78.6018V36.428C77.9918 36.306 77.4835 36.245 77.0768 36.245C76.5482 36.245 76.1415 36.3467 75.8568 36.55C75.6128 36.7533 75.4908 37.0177 75.4908 37.343C75.4908 37.465 75.5315 37.648 75.6128 37.892L82.6888 62.292L90.0698 39.051C90.1918 38.6037 90.2528 38.197 90.2528 37.831C90.2528 36.6923 89.6632 36.123 88.4838 36.123C87.9552 36.123 87.4062 36.2247 86.8368 36.428V35.513H96.1698ZM116.288 65.22C112.832 65.22 109.538 64.1423 106.406 61.987C103.316 59.791 100.835 56.863 98.9644 53.203C97.0937 49.543 96.1584 45.6187 96.1584 41.43C96.1584 36.8753 97.0531 32.7883 98.8424 29.169C100.632 25.5497 103.072 22.7233 106.162 20.69C109.253 18.6567 112.689 17.64 116.471 17.64C118.586 17.64 121.006 18.2093 123.73 19.348C126.496 20.4867 128.427 21.788 129.525 23.252L130.44 18.677H131.477V32.28H130.196C130.196 30.1653 129.546 28.071 128.244 25.997C126.984 23.923 125.235 22.215 122.998 20.873C120.762 19.531 118.301 18.86 115.617 18.86C112.852 18.86 110.392 19.836 108.236 21.788C106.081 23.74 104.393 26.424 103.173 29.84C101.953 33.2153 101.343 36.9973 101.343 41.186C101.343 45.212 101.933 48.9737 103.112 52.471C104.332 55.9277 106.162 58.7133 108.602 60.828C111.083 62.9427 114.092 64 117.63 64C120.233 64 122.612 63.2477 124.767 61.743C126.923 60.2383 128.529 58.2863 129.586 55.887C129.708 55.6023 129.952 54.7687 130.318 53.386C130.603 52.166 130.888 51.1493 131.172 50.336C131.498 49.482 131.925 48.7297 132.453 48.079H133.307C132.657 48.6483 132.189 49.7057 131.904 51.251C131.66 52.7963 131.538 54.9313 131.538 57.656C131.538 58.632 130.745 59.73 129.159 60.95C127.614 62.1293 125.642 63.146 123.242 64C120.884 64.8133 118.566 65.22 116.288 65.22ZM149.089 64.61C144.778 64.61 141.667 63.2477 139.756 60.523C137.885 57.7577 136.95 54.057 136.95 49.421C136.95 45.151 137.905 41.5723 139.817 38.685C141.728 35.757 144.819 34.293 149.089 34.293C153.359 34.293 156.449 35.757 158.361 38.685C160.313 41.5723 161.289 45.151 161.289 49.421C161.289 54.057 160.333 57.7577 158.422 60.523C156.51 63.2477 153.399 64.61 149.089 64.61ZM149.089 63.878C151.854 63.878 153.867 62.5563 155.128 59.913C156.388 57.229 157.019 53.7317 157.019 49.421C157.019 45.395 156.368 41.9993 155.067 39.234C153.765 36.428 151.773 35.025 149.089 35.025C146.405 35.025 144.412 36.428 143.111 39.234C141.85 41.9993 141.22 45.395 141.22 49.421C141.22 53.7317 141.85 57.229 143.111 59.913C144.371 62.5563 146.364 63.878 149.089 63.878ZM190.417 60.34C190.417 61.3567 190.519 62.1293 190.722 62.658C190.926 63.146 191.393 63.39 192.125 63.39C192.451 63.39 192.959 63.2883 193.65 63.085V64H183.28V63.085C183.972 63.2883 184.48 63.39 184.805 63.39C185.456 63.39 185.863 63.146 186.025 62.658C186.229 62.17 186.33 61.3973 186.33 60.34V43.992C186.33 41.186 185.741 38.99 184.561 37.404C183.423 35.818 181.918 35.025 180.047 35.025C178.258 35.025 176.814 35.7367 175.716 37.16C174.659 38.5427 173.907 40.1897 173.459 42.101C173.053 44.0123 172.849 45.8423 172.849 47.591V60.34C172.849 61.3973 172.931 62.17 173.093 62.658C173.297 63.146 173.724 63.39 174.374 63.39C174.7 63.39 175.208 63.2883 175.899 63.085V64H165.529V63.085C166.221 63.2883 166.729 63.39 167.054 63.39C167.786 63.39 168.254 63.146 168.457 62.658C168.661 62.1293 168.762 61.3567 168.762 60.34V38.685C168.152 38.8883 167.502 38.99 166.81 38.99C166.526 38.99 166.099 38.9493 165.529 38.868V37.221H166.078C166.078 37.5057 166.221 37.7497 166.505 37.953C166.831 38.1563 167.197 38.258 167.603 38.258C168.173 38.258 168.681 38.0343 169.128 37.587C169.576 37.1397 170.125 36.4483 170.775 35.513H171.873L171.934 40.454H172.788C173.52 38.624 174.517 37.1397 175.777 36.001C177.079 34.8217 178.685 34.232 180.596 34.232C182.142 34.232 183.667 34.6387 185.171 35.452C186.717 36.2247 187.977 37.3633 188.953 38.868C189.929 40.332 190.417 42.04 190.417 43.992V60.34ZM221.572 60.34C221.572 61.3567 221.674 62.1293 221.877 62.658C222.081 63.146 222.548 63.39 223.28 63.39C223.606 63.39 224.114 63.2883 224.805 63.085V64H214.435V63.085C215.127 63.2883 215.635 63.39 215.96 63.39C216.611 63.39 217.018 63.146 217.18 62.658C217.384 62.17 217.485 61.3973 217.485 60.34V43.992C217.485 41.186 216.896 38.99 215.716 37.404C214.578 35.818 213.073 35.025 211.202 35.025C209.413 35.025 207.969 35.7367 206.871 37.16C205.814 38.5427 205.062 40.1897 204.614 42.101C204.208 44.0123 204.004 45.8423 204.004 47.591V60.34C204.004 61.3973 204.086 62.17 204.248 62.658C204.452 63.146 204.879 63.39 205.529 63.39C205.855 63.39 206.363 63.2883 207.054 63.085V64H196.684V63.085C197.376 63.2883 197.884 63.39 198.209 63.39C198.941 63.39 199.409 63.146 199.612 62.658C199.816 62.1293 199.917 61.3567 199.917 60.34V38.685C199.307 38.8883 198.657 38.99 197.965 38.99C197.681 38.99 197.254 38.9493 196.684 38.868V37.221H197.233C197.233 37.5057 197.376 37.7497 197.66 37.953C197.986 38.1563 198.352 38.258 198.758 38.258C199.328 38.258 199.836 38.0343 200.283 37.587C200.731 37.1397 201.28 36.4483 201.93 35.513H203.028L203.089 40.454H203.943C204.675 38.624 205.672 37.1397 206.932 36.001C208.234 34.8217 209.84 34.232 211.751 34.232C213.297 34.232 214.822 34.6387 216.326 35.452C217.872 36.2247 219.132 37.3633 220.108 38.868C221.084 40.332 221.572 42.04 221.572 43.992V60.34ZM239.979 64.61C236.115 64.61 233.228 63.329 231.317 60.767C229.405 58.1643 228.45 54.3823 228.45 49.421C228.45 46.8183 228.856 44.3783 229.67 42.101C230.483 39.783 231.744 37.9123 233.452 36.489C235.2 35.025 237.335 34.293 239.857 34.293C243.964 34.293 246.892 35.5537 248.641 38.075C250.389 40.5557 251.264 43.5447 251.264 47.042C251.264 47.652 251.223 48.445 251.142 49.421L251.081 49.97H232.72C232.882 59.0793 235.424 63.634 240.345 63.634C242.541 63.634 244.167 62.963 245.225 61.621C246.282 60.279 246.811 58.754 246.811 57.046C246.811 56.3547 246.628 55.8463 246.262 55.521C245.936 55.1957 245.509 55.033 244.981 55.033C244.574 55.033 244.208 55.155 243.883 55.399C243.598 55.6023 243.456 55.8667 243.456 56.192H242.907V54.545H250.654C250.776 56.0903 250.389 57.6357 249.495 59.181C248.641 60.7263 247.38 62.0073 245.713 63.024C244.045 64.0407 242.134 64.5693 239.979 64.61ZM245.408 49.055C246.14 49.055 246.567 48.994 246.689 48.872C246.851 48.7093 246.953 48.3433 246.994 47.774C247.034 47.3267 247.055 46.6557 247.055 45.761C247.055 42.6703 246.485 40.1083 245.347 38.075C244.208 36.0417 242.297 35.025 239.613 35.025C237.01 35.025 235.221 36.306 234.245 38.868C233.269 41.43 232.76 44.8257 232.72 49.055H245.408ZM294.099 56.68C294.099 57.8187 293.835 59.0183 293.306 60.279C292.777 61.499 292.025 62.536 291.049 63.39C290.114 64.2033 289.016 64.61 287.755 64.61C286.291 64.61 285.315 64.0407 284.827 62.902C284.38 61.7633 284.156 60.1163 284.156 57.961L284.217 54.85V36.367H280.191V35.452H284.217V29.169C285.071 29.169 285.701 28.8843 286.108 28.315C286.555 27.7457 286.779 27.156 286.779 26.546C286.779 23.9027 285.884 21.91 284.095 20.568C282.346 19.226 280.11 18.555 277.385 18.555C272.749 18.555 269.577 20.6087 267.869 24.716C267.666 25.204 267.483 25.9157 267.32 26.851C267.157 27.7457 267.076 28.6403 267.076 29.535C267.076 30.6737 267.218 31.6903 267.503 32.585C267.828 33.439 268.316 34.0287 268.967 34.354C271.082 34.598 272.952 35.2283 274.579 36.245C276.206 37.2617 277.141 38.4817 277.385 39.905C277.466 40.4743 277.507 40.8607 277.507 41.064C277.507 41.9587 277.283 42.6907 276.836 43.26C276.389 43.7887 275.758 44.053 274.945 44.053C273.522 44.053 272.81 43.6057 272.81 42.711C272.81 42.345 272.912 41.8163 273.115 41.125C273.359 40.3117 273.481 39.6407 273.481 39.112C273.481 38.2987 273.176 37.587 272.566 36.977C271.956 36.3263 271.224 35.8383 270.37 35.513C269.516 35.1877 268.743 35.025 268.052 35.025C265.49 35.025 263.477 36.306 262.013 38.868C260.549 41.3893 259.817 45.09 259.817 49.97C259.817 53.9147 260.529 57.1477 261.952 59.669C263.416 62.1903 265.653 63.451 268.662 63.451C270.736 63.451 272.444 62.8207 273.786 61.56C275.128 60.2993 276.023 58.754 276.47 56.924H277.812C277.243 59.0387 276.104 60.8483 274.396 62.353C272.688 63.8577 270.716 64.61 268.479 64.61C265.47 64.61 262.989 63.8983 261.037 62.475C259.126 61.0517 257.723 59.2013 256.828 56.924C255.974 54.606 255.547 52.105 255.547 49.421C255.547 46.8183 255.994 44.3783 256.889 42.101C257.784 39.783 259.126 37.9123 260.915 36.489C262.745 35.025 264.921 34.293 267.442 34.293H267.564C266.669 33.6423 265.958 32.707 265.429 31.487C264.941 30.2263 264.697 28.9047 264.697 27.522C264.697 26.3427 264.88 25.2447 265.246 24.228C266.019 22.1947 267.462 20.5883 269.577 19.409C271.692 18.2297 274.213 17.64 277.141 17.64C279.012 17.64 280.781 17.9653 282.448 18.616C284.115 19.2667 285.457 20.263 286.474 21.605C287.531 22.947 288.06 24.594 288.06 26.546L287.999 35.452H293.001V36.367H287.999L287.938 57.839C287.938 59.4657 288.08 60.645 288.365 61.377C288.69 62.0683 289.199 62.414 289.89 62.414C290.703 62.414 291.374 62.048 291.903 61.316C292.432 60.584 292.818 59.7707 293.062 58.876C293.347 57.9407 293.489 57.2087 293.489 56.68H294.099Z" fill="black"/>
</svg>
