<svg width="155" height="35" viewBox="0 0 155 35" fill="none" xmlns="http://www.w3.org/2000/svg">
<path d="M1.16 30.275C1.52733 30.391 1.86567 30.449 2.175 30.449C2.54233 30.449 2.82267 30.3523 3.016 30.159C3.22867 29.9463 3.335 29.6467 3.335 29.26V11.28C3.335 10.8933 3.22867 10.6033 3.016 10.41C2.82267 10.1973 2.54233 10.091 2.175 10.091C1.86567 10.091 1.52733 10.149 1.16 10.265V9.54H10.121C11.7837 9.54 13.311 9.96533 14.703 10.816C16.1143 11.6667 17.226 12.8653 18.038 14.412C18.85 15.9587 19.256 17.718 19.256 19.69C19.256 21.6813 18.8403 23.547 18.009 25.287C17.197 27.027 16.0853 28.419 14.674 29.463C13.282 30.4877 11.7643 31 10.121 31H1.16V30.275ZM9.483 30.507C10.585 30.507 11.7063 30.1397 12.847 29.405C14.007 28.6703 14.9833 27.5297 15.776 25.983C16.5687 24.417 16.965 22.474 16.965 20.154C16.965 18.356 16.617 16.6837 15.921 15.137C15.2443 13.571 14.326 12.324 13.166 11.396C12.0253 10.468 10.7977 10.004 9.483 10.004H6.873C6.525 10.004 6.206 10.1103 5.916 10.323C5.64533 10.5163 5.51 10.8353 5.51 11.28V29.26C5.51 29.7047 5.64533 30.0237 5.916 30.217C6.206 30.4103 6.525 30.507 6.873 30.507H9.483ZM26.7767 31.29C24.9401 31.29 23.5674 30.681 22.6587 29.463C21.7501 28.2257 21.2957 26.4277 21.2957 24.069C21.2957 22.8317 21.4891 21.6717 21.8757 20.589C22.2624 19.487 22.8617 18.5977 23.6737 17.921C24.5051 17.225 25.5201 16.877 26.7187 16.877C28.6714 16.877 30.0634 17.4763 30.8947 18.675C31.7261 19.8543 32.1417 21.2753 32.1417 22.938C32.1417 23.228 32.1224 23.605 32.0837 24.069L32.0547 24.33H23.3257C23.4031 28.6607 24.6114 30.826 26.9507 30.826C27.9947 30.826 28.7681 30.507 29.2707 29.869C29.7734 29.231 30.0247 28.506 30.0247 27.694C30.0247 27.3653 29.9377 27.1237 29.7637 26.969C29.6091 26.8143 29.4061 26.737 29.1547 26.737C28.9614 26.737 28.7874 26.795 28.6327 26.911C28.4974 27.0077 28.4297 27.1333 28.4297 27.288H28.1687V26.505H31.8517C31.9097 27.2397 31.7261 27.9743 31.3007 28.709C30.8947 29.4437 30.2954 30.0527 29.5027 30.536C28.7101 31.0193 27.8014 31.2707 26.7767 31.29ZM29.3577 23.895C29.7057 23.895 29.9087 23.866 29.9667 23.808C30.0441 23.7307 30.0924 23.5567 30.1117 23.286C30.1311 23.0733 30.1407 22.7543 30.1407 22.329C30.1407 20.8597 29.8701 19.6417 29.3287 18.675C28.7874 17.7083 27.8787 17.225 26.6027 17.225C25.3654 17.225 24.5147 17.834 24.0507 19.052C23.5867 20.27 23.3451 21.8843 23.3257 23.895H29.3577ZM45.7201 17.457V17.892C45.5074 17.8147 45.2948 17.776 45.0821 17.776C44.6181 17.776 44.2218 17.9307 43.8931 18.24C43.5838 18.53 43.3808 18.8297 43.2841 19.139L39.5431 31H37.9191L34.3811 19.371C34.1491 18.327 33.6658 17.805 32.9311 17.805C32.7184 17.805 32.5058 17.834 32.2931 17.892V17.457H37.3681V17.892C37.0781 17.834 36.8364 17.805 36.6431 17.805C36.3918 17.805 36.1984 17.8533 36.0631 17.95C35.9471 18.0467 35.8891 18.1723 35.8891 18.327C35.8891 18.385 35.9084 18.472 35.9471 18.588L39.3111 30.188L42.8201 19.139C42.8781 18.9263 42.9071 18.733 42.9071 18.559C42.9071 18.0177 42.6268 17.747 42.0661 17.747C41.8148 17.747 41.5538 17.7953 41.2831 17.892V17.457H45.7201ZM55.2846 31.58C53.6413 31.58 52.0753 31.0677 50.5866 30.043C49.1173 28.999 47.938 27.607 47.0486 25.867C46.1593 24.127 45.7146 22.2613 45.7146 20.27C45.7146 18.1047 46.14 16.1617 46.9906 14.441C47.8413 12.7203 49.0013 11.3767 50.4706 10.41C51.94 9.44333 53.5736 8.96 55.3716 8.96C56.377 8.96 57.5273 9.23067 58.8226 9.772C60.1373 10.3133 61.0556 10.932 61.5776 11.628L62.0126 9.453H62.5056V15.92H61.8966C61.8966 14.9147 61.5873 13.919 60.9686 12.933C60.3693 11.947 59.538 11.135 58.4746 10.497C57.4113 9.859 56.2416 9.54 54.9656 9.54C53.651 9.54 52.4813 10.004 51.4566 10.932C50.432 11.86 49.6296 13.136 49.0496 14.76C48.4696 16.3647 48.1796 18.1627 48.1796 20.154C48.1796 22.068 48.46 23.8563 49.0206 25.519C49.6006 27.1623 50.4706 28.4867 51.6306 29.492C52.81 30.4973 54.2406 31 55.9226 31C57.16 31 58.291 30.6423 59.3156 29.927C60.3403 29.2117 61.104 28.2837 61.6066 27.143C61.6646 27.0077 61.7806 26.6113 61.9546 25.954C62.09 25.374 62.2253 24.8907 62.3606 24.504C62.5153 24.098 62.7183 23.7403 62.9696 23.431H63.3756C63.0663 23.7017 62.844 24.2043 62.7086 24.939C62.5926 25.6737 62.5347 26.6887 62.5347 27.984C62.5347 28.448 62.1576 28.97 61.4036 29.55C60.669 30.1107 59.7313 30.594 58.5906 31C57.4693 31.3867 56.3673 31.58 55.2846 31.58ZM70.8783 31.29C68.8289 31.29 67.3499 30.6423 66.4413 29.347C65.5519 28.0323 65.1073 26.273 65.1073 24.069C65.1073 22.039 65.5616 20.3377 66.4703 18.965C67.3789 17.573 68.8483 16.877 70.8783 16.877C72.9083 16.877 74.3776 17.573 75.2863 18.965C76.2143 20.3377 76.6783 22.039 76.6783 24.069C76.6783 26.273 76.2239 28.0323 75.3153 29.347C74.4066 30.6423 72.9276 31.29 70.8783 31.29ZM70.8783 30.942C72.1929 30.942 73.1499 30.3137 73.7493 29.057C74.3486 27.781 74.6483 26.1183 74.6483 24.069C74.6483 22.155 74.3389 20.5407 73.7203 19.226C73.1016 17.892 72.1543 17.225 70.8783 17.225C69.6023 17.225 68.6549 17.892 68.0363 19.226C67.4369 20.5407 67.1373 22.155 67.1373 24.069C67.1373 26.1183 67.4369 27.781 68.0363 29.057C68.6356 30.3137 69.5829 30.942 70.8783 30.942ZM90.5262 29.26C90.5262 29.7433 90.5746 30.1107 90.6712 30.362C90.7679 30.594 90.9902 30.71 91.3382 30.71C91.4929 30.71 91.7346 30.6617 92.0632 30.565V31H87.1332V30.565C87.4619 30.6617 87.7036 30.71 87.8582 30.71C88.1676 30.71 88.3609 30.594 88.4382 30.362C88.5349 30.13 88.5832 29.7627 88.5832 29.26V21.488C88.5832 20.154 88.3029 19.11 87.7422 18.356C87.2009 17.602 86.4856 17.225 85.5962 17.225C84.7456 17.225 84.0592 17.5633 83.5372 18.24C83.0346 18.8973 82.6769 19.6803 82.4642 20.589C82.2709 21.4977 82.1742 22.3677 82.1742 23.199V29.26C82.1742 29.7627 82.2129 30.13 82.2902 30.362C82.3869 30.594 82.5899 30.71 82.8992 30.71C83.0539 30.71 83.2956 30.6617 83.6242 30.565V31H78.6942V30.565C79.0229 30.6617 79.2646 30.71 79.4192 30.71C79.7672 30.71 79.9896 30.594 80.0862 30.362C80.1829 30.1107 80.2312 29.7433 80.2312 29.26V18.965C79.9412 19.0617 79.6319 19.11 79.3032 19.11C79.1679 19.11 78.9649 19.0907 78.6942 19.052V18.269H78.9552C78.9552 18.4043 79.0229 18.5203 79.1582 18.617C79.3129 18.7137 79.4869 18.762 79.6802 18.762C79.9509 18.762 80.1926 18.6557 80.4052 18.443C80.6179 18.2303 80.8789 17.9017 81.1882 17.457H81.7102L81.7392 19.806H82.1452C82.4932 18.936 82.9669 18.2303 83.5662 17.689C84.1849 17.1283 84.9486 16.848 85.8572 16.848C86.5919 16.848 87.3169 17.0413 88.0322 17.428C88.7669 17.7953 89.3662 18.3367 89.8302 19.052C90.2942 19.748 90.5262 20.56 90.5262 21.488V29.26ZM105.338 29.26C105.338 29.7433 105.386 30.1107 105.483 30.362C105.579 30.594 105.802 30.71 106.15 30.71C106.304 30.71 106.546 30.6617 106.875 30.565V31H101.945V30.565C102.273 30.6617 102.515 30.71 102.67 30.71C102.979 30.71 103.172 30.594 103.25 30.362C103.346 30.13 103.395 29.7627 103.395 29.26V21.488C103.395 20.154 103.114 19.11 102.554 18.356C102.012 17.602 101.297 17.225 100.408 17.225C99.5571 17.225 98.8707 17.5633 98.3487 18.24C97.8461 18.8973 97.4884 19.6803 97.2757 20.589C97.0824 21.4977 96.9857 22.3677 96.9857 23.199V29.26C96.9857 29.7627 97.0244 30.13 97.1017 30.362C97.1984 30.594 97.4014 30.71 97.7107 30.71C97.8654 30.71 98.1071 30.6617 98.4357 30.565V31H93.5057V30.565C93.8344 30.6617 94.0761 30.71 94.2307 30.71C94.5787 30.71 94.8011 30.594 94.8977 30.362C94.9944 30.1107 95.0427 29.7433 95.0427 29.26V18.965C94.7527 19.0617 94.4434 19.11 94.1147 19.11C93.9794 19.11 93.7764 19.0907 93.5057 19.052V18.269H93.7667C93.7667 18.4043 93.8344 18.5203 93.9697 18.617C94.1244 18.7137 94.2984 18.762 94.4917 18.762C94.7624 18.762 95.0041 18.6557 95.2167 18.443C95.4294 18.2303 95.6904 17.9017 95.9997 17.457H96.5217L96.5507 19.806H96.9567C97.3047 18.936 97.7784 18.2303 98.3777 17.689C98.9964 17.1283 99.7601 16.848 100.669 16.848C101.403 16.848 102.128 17.0413 102.844 17.428C103.578 17.7953 104.178 18.3367 104.642 19.052C105.106 19.748 105.338 20.56 105.338 21.488V29.26ZM114.088 31.29C112.252 31.29 110.879 30.681 109.97 29.463C109.062 28.2257 108.607 26.4277 108.607 24.069C108.607 22.8317 108.801 21.6717 109.187 20.589C109.574 19.487 110.173 18.5977 110.985 17.921C111.817 17.225 112.832 16.877 114.03 16.877C115.983 16.877 117.375 17.4763 118.206 18.675C119.038 19.8543 119.453 21.2753 119.453 22.938C119.453 23.228 119.434 23.605 119.395 24.069L119.366 24.33H110.637C110.715 28.6607 111.923 30.826 114.262 30.826C115.306 30.826 116.08 30.507 116.582 29.869C117.085 29.231 117.336 28.506 117.336 27.694C117.336 27.3653 117.249 27.1237 117.075 26.969C116.921 26.8143 116.718 26.737 116.466 26.737C116.273 26.737 116.099 26.795 115.944 26.911C115.809 27.0077 115.741 27.1333 115.741 27.288H115.48V26.505H119.163C119.221 27.2397 119.038 27.9743 118.612 28.709C118.206 29.4437 117.607 30.0527 116.814 30.536C116.022 31.0193 115.113 31.2707 114.088 31.29ZM116.669 23.895C117.017 23.895 117.22 23.866 117.278 23.808C117.356 23.7307 117.404 23.5567 117.423 23.286C117.443 23.0733 117.452 22.7543 117.452 22.329C117.452 20.8597 117.182 19.6417 116.64 18.675C116.099 17.7083 115.19 17.225 113.914 17.225C112.677 17.225 111.826 17.834 111.362 19.052C110.898 20.27 110.657 21.8843 110.637 23.895H116.669ZM139.818 27.52C139.818 28.0613 139.692 28.6317 139.441 29.231C139.189 29.811 138.832 30.304 138.368 30.71C137.923 31.0967 137.401 31.29 136.802 31.29C136.106 31.29 135.642 31.0193 135.41 30.478C135.197 29.9367 135.091 29.1537 135.091 28.129L135.12 26.65V17.863H133.206V17.428H135.12V14.441C135.526 14.441 135.825 14.3057 136.019 14.035C136.231 13.7643 136.338 13.484 136.338 13.194C136.338 11.9373 135.912 10.99 135.062 10.352C134.23 9.714 133.167 9.395 131.872 9.395C129.668 9.395 128.16 10.3713 127.348 12.324C127.251 12.556 127.164 12.8943 127.087 13.339C127.009 13.7643 126.971 14.1897 126.971 14.615C126.971 15.1563 127.038 15.6397 127.174 16.065C127.328 16.471 127.56 16.7513 127.87 16.906C128.875 17.022 129.764 17.3217 130.538 17.805C131.311 18.2883 131.756 18.8683 131.872 19.545C131.91 19.8157 131.93 19.9993 131.93 20.096C131.93 20.5213 131.823 20.8693 131.611 21.14C131.398 21.3913 131.098 21.517 130.712 21.517C130.035 21.517 129.697 21.3043 129.697 20.879C129.697 20.705 129.745 20.4537 129.842 20.125C129.958 19.7383 130.016 19.4193 130.016 19.168C130.016 18.7813 129.871 18.443 129.581 18.153C129.291 17.8437 128.943 17.6117 128.537 17.457C128.131 17.3023 127.763 17.225 127.435 17.225C126.217 17.225 125.26 17.834 124.564 19.052C123.868 20.2507 123.52 22.01 123.52 24.33C123.52 26.2053 123.858 27.7423 124.535 28.941C125.231 30.1397 126.294 30.739 127.725 30.739C128.711 30.739 129.523 30.4393 130.161 29.84C130.799 29.2407 131.224 28.506 131.437 27.636H132.075C131.804 28.6413 131.263 29.5017 130.451 30.217C129.639 30.9323 128.701 31.29 127.638 31.29C126.207 31.29 125.028 30.9517 124.1 30.275C123.191 29.5983 122.524 28.7187 122.099 27.636C121.693 26.534 121.49 25.345 121.49 24.069C121.49 22.8317 121.702 21.6717 122.128 20.589C122.553 19.487 123.191 18.5977 124.042 17.921C124.912 17.225 125.946 16.877 127.145 16.877H127.203C126.777 16.5677 126.439 16.123 126.188 15.543C125.956 14.9437 125.84 14.3153 125.84 13.658C125.84 13.0973 125.927 12.5753 126.101 12.092C126.468 11.1253 127.154 10.3617 128.16 9.801C129.165 9.24033 130.364 8.96 131.756 8.96C132.645 8.96 133.486 9.11467 134.279 9.424C135.071 9.73333 135.709 10.207 136.193 10.845C136.695 11.483 136.947 12.266 136.947 13.194L136.918 17.428H139.296V17.863H136.918L136.889 28.071C136.889 28.8443 136.956 29.405 137.092 29.753C137.246 30.0817 137.488 30.246 137.817 30.246C138.203 30.246 138.522 30.072 138.774 29.724C139.025 29.376 139.209 28.9893 139.325 28.564C139.46 28.1193 139.528 27.7713 139.528 27.52H139.818Z" fill="#1E003D"/>
</svg>
